ModelForces
version=1
nRows=4
nColumns=103
inDegrees=no

This file contains the forces exerted on a model during a simulation.

A force is a generalized force, meaning that it can be either a force (N) or a torque (Nm).

Units are S.I. units (second, meters, Newtons, ...)
Angles are in degrees.

endheader
time	glut_med1_r	glut_med2_r	glut_med3_r	glut_min1_r	glut_min2_r	glut_min3_r	semimem_r	semiten_r	bifemlh_r	bifemsh_r	sar_r	add_long_r	add_brev_r	add_mag1_r	add_mag2_r	add_mag3_r	tfl_r	pect_r	grac_r	glut_max1_r	glut_max2_r	glut_max3_r	iliacus_r	psoas_r	quad_fem_r	gem_r	peri_r	rect_fem_r	vas_med_r	vas_int_r	vas_lat_r	med_gas_r	lat_gas_r	soleus_r	tib_post_r	flex_dig_r	flex_hal_r	tib_ant_r	per_brev_r	per_long_r	per_tert_r	ext_dig_r	ext_hal_r	glut_med1_l	glut_med2_l	glut_med3_l	glut_min1_l	glut_min2_l	glut_min3_l	semimem_l	semiten_l	bifemlh_l	bifemsh_l	sar_l	add_long_l	add_brev_l	add_mag1_l	add_mag2_l	add_mag3_l	tfl_l	pect_l	grac_l	glut_max1_l	glut_max2_l	glut_max3_l	iliacus_l	psoas_l	quad_fem_l	gem_l	peri_l	rect_fem_l	vas_med_l	vas_int_l	vas_lat_l	med_gas_l	lat_gas_l	soleus_l	tib_post_l	flex_dig_l	flex_hal_l	tib_ant_l	per_brev_l	per_long_l	per_tert_l	ext_dig_l	ext_hal_l	ercspn_r	ercspn_l	intobl_r	intobl_l	extobl_r	extobl_l	aACL_R	pACL_R	aPCL_R	pPCL_R	aMCL_R	aLCL_R	aPCL_L	pPCL_L	aMCL_L	aLCL_L
      0.00032627	      0.00000000	      0.00000000	      0.00000000	      0.00000000	      0.00000000	      0.00000000	      0.00000000	     89.87358487	      0.00000000	     88.03365060	      0.00000000	     48.06620161	      0.00000000	      0.00000000	      0.00000000	      0.00000000	     64.18266418	      0.00000000	     17.79639770	      0.00000000	      0.00000000	      0.00000000	    108.19751777	     90.28504803	      0.00000000	     12.11533367	      0.00000000	    137.31557891	      0.00000000	      0.00000000	      0.00000000	      0.00000000	      0.00000000	      0.00000000	      0.00000000	      0.00000000	      0.00000000	      0.00000000	      0.00000000	      0.00000000	      0.00000000	      0.00000000	     18.19698769	      0.00000000	      0.00000000	      0.00000000	      0.00000000	      0.00000000	      0.00000000	      0.00000000	     51.87638223	      0.00000000	     55.94169945	      0.00000000	     48.30240543	      0.00000000	      0.00000000	      0.00000000	      0.00000000	     47.87086187	      0.00000000	     11.71388683	      0.00000000	      0.00000000	      0.00000000	    108.24203218	     90.33183846	      0.00000000	     12.13955029	      0.00000000	    135.65845562	      0.00000000	      0.00000000	      0.00000000	      0.00000000	      0.00000000	      0.00000000	      0.00000000	      0.00000000	      0.00000000	      0.00000000	      0.00000000	      0.00000000	      0.00000000	      0.00000000	     18.19234998	    187.86235962	    187.86235962	      0.00000000	      0.00000000	    112.75717692	    112.75717692	    154.39884454	    266.39263585	      0.00000000	    -13.09948481	   -262.04376346	    915.83160477	   -204.04398854	   2024.22646236	   -175.78093186	    102.02989001
      0.00059610	      0.00000000	      0.00000000	      0.00000000	      0.00000000	      0.00000000	      0.00000000	      0.00000000	     74.39177714	      0.00000000	     70.61320440	      0.00000000	     44.04493954	      0.00000000	      0.00000000	      0.00000000	      0.00000000	     37.63494722	      0.00000000	     15.43511510	      0.00000000	      0.00000000	      0.00000000	     96.75161244	     87.61684497	      0.00000000	     11.84102083	      0.00000000	    104.91102735	      0.00000000	      0.00000000	      0.00000000	      0.00000000	      0.00000000	      0.00000000	      0.00000000	      0.00000000	      0.00000000	      0.00000000	      0.00000000	      0.00000000	      0.00000000	      0.00000000	     15.09839826	      0.00000000	      0.00000000	      0.00000000	      0.00000000	      0.00000000	      0.00000000	      0.00000000	     36.25828253	      0.00000000	     41.93301165	      0.00000000	     44.98371596	      0.33188788	      0.00000000	      0.00000000	      0.00000000	     32.23861296	      0.00000000	      9.67219792	      0.00000000	      0.00000000	      0.00000000	     96.84477603	     87.74352795	      0.00000000	     12.13883547	      0.00000000	    104.65527775	      0.00000000	      0.00000000	      0.00000000	      0.00000000	      0.00000000	      0.00000000	      0.00000000	      0.00000000	      0.00000000	      0.00000000	      0.00000000	      0.00000000	      0.00000000	      0.00000000	     15.07519448	    175.06366119	    175.06366119	      0.00000000	      0.00000000	     88.76789722	     88.76789722	    112.41737603	    221.37564167	      0.00000000	    -86.19011354	   -312.84246087	    827.73600517	      0.00000000	   1691.64984855	   -257.49126038	    -25.24140674
      0.00101609	      0.00000000	      0.00000000	      0.00000000	      0.00000000	      0.00000000	      0.00000000	      0.00000000	     65.23305880	      0.00000000	     51.46327822	      0.00000000	     40.87312181	      5.61987673	      0.00000000	      0.00000000	      0.00000000	     28.48412155	      0.00000000	     13.07299294	      0.00000000	      0.00000000	      0.00000000	     90.98357861	     84.48123337	      0.00000000	     11.42520896	      0.00000000	     87.85363905	      0.00000000	      0.00000000	      0.00000000	      0.00000000	      0.00000000	      0.00000000	      0.00000000	      0.00000000	      0.00000000	      0.00000000	      0.00000000	      0.00000000	      0.00000000	      0.00000000	     13.65219972	      0.00000000	      0.00000000	      0.00000000	      0.00000000	      0.00000000	      0.00000000	      0.00000000	     30.72699480	      0.00000000	     24.71220546	      0.00000000	     43.58432207	      9.22219468	      0.00000000	      0.00000000	      0.00000000	     25.12109946	      0.00000000	      7.13131982	      0.00000000	      0.00000000	      0.00000000	     91.40179276	     84.80537958	      0.00000000	     12.36814145	      0.00000000	     88.45943398	      0.00000000	      0.00000000	      0.00000000	      0.00000000	      0.00000000	      0.00000000	      0.00000000	      0.00000000	      0.00000000	      0.00000000	      0.00000000	      0.00000000	      0.00000000	      0.00000000	     13.59099127	    163.29690513	    163.29690513	      0.00000000	      0.00000000	     84.30717818	     84.30717818	     63.23253522	    165.32447151	      0.00000000	   -169.70140715	   -364.26597639	    719.03446569	      0.00000000	   1216.13040553	   -341.71917007	   -177.32198742
      0.00259937	      0.00000000	      0.00000000	      0.00000000	      0.00000000	      0.00000000	      0.00000000	      0.00000000	     42.37410371	      0.00000000	     27.09359793	      0.00000000	     32.54751198	     12.24169635	      0.00000000	      0.00000000	      0.00000000	     17.84716508	      0.00000000	     12.18182629	      0.00000000	      0.00000000	      0.00000000	     79.84576785	     76.50257301	      0.00000000	      9.85601679	      0.00000000	     46.25464387	      0.00000000	      0.00000000	      0.00000000	      0.00000000	      0.00000000	      0.00000000	      0.00000000	      0.00000000	      0.00000000	      0.00000000	      0.00000000	      0.00000000	      0.00000000	      0.00000000	     12.80551392	      0.00000000	      0.00000000	      0.00000000	      0.00000000	      0.00000000	      0.00000000	      0.00000000	     18.15692211	      0.00000000	      1.60907785	      0.00000000	     42.15030828	      0.00000000	      0.00000000	      0.00000000	      0.00000000	     17.51238366	      0.00000000	      2.93467730	      0.00000000	      0.00000000	      0.00000000	     82.23414165	     78.04652740	      0.00000000	     14.04753794	      0.00000000	     54.90509621	      0.00000000	      0.00000000	      0.00000000	      0.00000000	      0.00000000	      0.00000000	      0.00000000	      0.00000000	      0.00000000	      0.00000000	      0.00000000	      0.00000000	      0.00000000	      0.00000000	     12.49573293	    142.54705044	    142.54705044	      0.00000000	      0.00000000	     76.76348056	     76.76348056	    -65.50859362	     -1.28936671	      0.00000000	   -346.85981154	      0.00000000	    403.77773366	      0.00000000	    119.74760279	   -336.12769822	   -311.85955112
